<?xml version="1.0" encoding="UTF-8"?>
<svg preserveAspectRatio="xMinYMin" version="1.1" viewBox="0 0 189 189" xmlns="http://www.w3.org/2000/svg">
 <path d="m0 0h9v9h-9zm9 0h9v9h-9zm9 0h9v9h-9zm9 0h9v9h-9zm9 0h9v9h-9zm9 0h9v9h-9zm9 0h9v9h-9zm18 0h9v9h-9zm18 0h9v9h-9zm9 0h9v9h-9zm27 0h9v9h-9zm9 0h9v9h-9zm9 0h9v9h-9zm9 0h9v9h-9zm9 0h9v9h-9zm9 0h9v9h-9zm9 0h9v9h-9zm-180 9h9v9h-9zm54 0h9v9h-9zm45 0h9v9h-9zm27 0h9v9h-9zm54 0h9v9h-9zm-180 9h9v9h-9zm18 0h9v9h-9zm9 0h9v9h-9zm9 0h9v9h-9zm18 0h9v9h-9zm27 0h9v9h-9zm45 0h9v9h-9zm18 0h9v9h-9zm9 0h9v9h-9zm9 0h9v9h-9zm18 0h9v9h-9zm-180 9h9v9h-9zm18 0h9v9h-9zm9 0h9v9h-9zm9 0h9v9h-9zm18 0h9v9h-9zm27 0h9v9h-9zm9 0h9v9h-9zm9 0h9v9h-9zm9 0h9v9h-9zm18 0h9v9h-9zm18 0h9v9h-9zm9 0h9v9h-9zm9 0h9v9h-9zm18 0h9v9h-9zm-180 9h9v9h-9zm18 0h9v9h-9zm9 0h9v9h-9zm9 0h9v9h-9zm18 0h9v9h-9zm18 0h9v9h-9zm9 0h9v9h-9zm18 0h9v9h-9zm27 0h9v9h-9zm18 0h9v9h-9zm9 0h9v9h-9zm9 0h9v9h-9zm18 0h9v9h-9zm-180 9h9v9h-9zm54 0h9v9h-9zm18 0h9v9h-9zm18 0h9v9h-9zm18 0h9v9h-9zm18 0h9v9h-9zm54 0h9v9h-9zm-180 9h9v9h-9zm9 0h9v9h-9zm9 0h9v9h-9zm9 0h9v9h-9zm9 0h9v9h-9zm9 0h9v9h-9zm9 0h9v9h-9zm18 0h9v9h-9zm18 0h9v9h-9zm18 0h9v9h-9zm18 0h9v9h-9zm9 0h9v9h-9zm9 0h9v9h-9zm9 0h9v9h-9zm9 0h9v9h-9zm9 0h9v9h-9zm9 0h9v9h-9zm-99 9h9v9h-9zm27 0h9v9h-9zm-99 9h9v9h-9zm9 0h9v9h-9zm9 0h9v9h-9zm9 0h9v9h-9zm9 0h9v9h-9zm9 0h9v9h-9zm9 0h9v9h-9zm18 0h9v9h-9zm54 0h9v9h-9zm9 0h9v9h-9zm36 0h9v9h-9zm-180 9h9v9h-9zm9 0h9v9h-9zm36 0h9v9h-9zm18 0h9v9h-9zm9 0h9v9h-9zm18 0h9v9h-9zm45 0h9v9h-9zm27 0h9v9h-9zm9 0h9v9h-9zm-171 9h9v9h-9zm27 0h9v9h-9zm9 0h9v9h-9zm18 0h9v9h-9zm36 0h9v9h-9zm9 0h9v9h-9zm18 0h9v9h-9zm27 0h9v9h-9zm27 0h9v9h-9zm-162 9h9v9h-9zm18 0h9v9h-9zm54 0h9v9h-9zm9 0h9v9h-9zm45 0h9v9h-9zm9 0h9v9h-9zm18 0h9v9h-9zm9 0h9v9h-9zm-162 9h9v9h-9zm18 0h9v9h-9zm9 0h9v9h-9zm18 0h9v9h-9zm9 0h9v9h-9zm18 0h9v9h-9zm9 0h9v9h-9zm18 0h9v9h-9zm9 0h9v9h-9zm27 0h9v9h-9zm18 0h9v9h-9zm-90 9h9v9h-9zm9 0h9v9h-9zm9 0h9v9h-9zm27 0h9v9h-9zm9 0h9v9h-9zm27 0h9v9h-9zm18 0h9v9h-9zm-171 9h9v9h-9zm9 0h9v9h-9zm9 0h9v9h-9zm9 0h9v9h-9zm9 0h9v9h-9zm9 0h9v9h-9zm9 0h9v9h-9zm18 0h9v9h-9zm9 0h9v9h-9zm27 0h9v9h-9zm18 0h9v9h-9zm9 0h9v9h-9zm36 0h9v9h-9zm-171 9h9v9h-9zm54 0h9v9h-9zm18 0h9v9h-9zm9 0h9v9h-9zm36 0h9v9h-9zm9 0h9v9h-9zm27 0h9v9h-9zm27 0h9v9h-9zm-180 9h9v9h-9zm18 0h9v9h-9zm9 0h9v9h-9zm9 0h9v9h-9zm18 0h9v9h-9zm18 0h9v9h-9zm9 0h9v9h-9zm9 0h9v9h-9zm9 0h9v9h-9zm9 0h9v9h-9zm27 0h9v9h-9zm27 0h9v9h-9zm-162 9h9v9h-9zm18 0h9v9h-9zm9 0h9v9h-9zm9 0h9v9h-9zm18 0h9v9h-9zm18 0h9v9h-9zm18 0h9v9h-9zm18 0h9v9h-9zm27 0h9v9h-9zm27 0h9v9h-9zm-162 9h9v9h-9zm18 0h9v9h-9zm9 0h9v9h-9zm9 0h9v9h-9zm18 0h9v9h-9zm18 0h9v9h-9zm27 0h9v9h-9zm18 0h9v9h-9zm27 0h9v9h-9zm9 0h9v9h-9zm9 0h9v9h-9zm-162 9h9v9h-9zm54 0h9v9h-9zm18 0h9v9h-9zm9 0h9v9h-9zm9 0h9v9h-9zm45 0h9v9h-9zm9 0h9v9h-9zm18 0h9v9h-9zm-162 9h9v9h-9zm9 0h9v9h-9zm9 0h9v9h-9zm9 0h9v9h-9zm9 0h9v9h-9zm9 0h9v9h-9zm9 0h9v9h-9zm45 0h9v9h-9zm18 0h9v9h-9zm27 0h9v9h-9zm9 0h9v9h-9zm9 0h9v9h-9zm9 0h9v9h-9z" fill="#0c0c0d" stroke="transparent"/>
</svg>
